<svg id="Layer_1" data-name="Layer 1" xmlns="http://www.w3.org/2000/svg" viewBox="0 0 400 400"><rect width="400" height="400" fill="#099dfd"/><path d="M218.2,204.05a16.86,16.86,0,1,1,16.85-16.86,16.87,16.87,0,0,1-16.85,16.86m0-47.42a30.57,30.57,0,1,0,30.56,30.56,30.6,30.6,0,0,0-30.56-30.56" fill="#fff"/><path d="M269.06,164.5l-.39.37-.4.4-.27-.5-.26-.48a14.59,14.59,0,0,0-10.85-7.53l-1.13-.15v61.17l1.14-.17c6.26-.9,12.57-5.71,12.57-14.39v-16a17,17,0,0,1,15.13-16.77l.89-.09V156.62l-1.09.1c-5.32.53-10.62,3.21-15.34,7.78" fill="#fff"/><path d="M81.11,204.07A16.86,16.86,0,1,1,98,187.21a16.87,16.87,0,0,1-16.86,16.86m19.63-41.39-.25.34-.25.35-.35-.26-.33-.25a30.24,30.24,0,0,0-18.45-6.21,30.57,30.57,0,1,0,18.45,54.92l.33-.25.35-.27.25.36.25.34a14.64,14.64,0,0,0,9.81,5.9l1.13.15V156.63l-1.13.15a14.64,14.64,0,0,0-9.81,5.9" fill="#fff"/><path d="M319.49,204.07a16.86,16.86,0,1,1,16.85-16.86,16.88,16.88,0,0,1-16.85,16.86m29.43-47.29a14.64,14.64,0,0,0-9.81,5.9l-.24.34-.26.35-.35-.26-.33-.25a30.21,30.21,0,0,0-18.44-6.21,30.57,30.57,0,1,0,0,61.13,30.28,30.28,0,0,0,18.44-6.21l.33-.25.35-.27.26.36.24.34a14.64,14.64,0,0,0,9.81,5.9l1.14.15V156.63Z" fill="#fff"/><path d="M150.13,170.34h0a16.86,16.86,0,1,1-16.87,16.85,16.87,16.87,0,0,1,16.87-16.85m19.1,40.7a30.5,30.5,0,0,0,6.21-41c-.44-.65-.92-1.28-1.41-1.89a14.8,14.8,0,0,0,6.51-10.4l.17-1.14H150a30.55,30.55,0,0,0-19,54.41,30,30,0,0,0-3.66,3.46l9.32,10.21A16.85,16.85,0,1,1,159,249.18l9.33,10.22a30.51,30.51,0,0,0,.86-48.36" fill="#fff"/></svg>